<svg width="24" height="27" viewBox="0 0 24 27" fill="none" xmlns="http://www.w3.org/2000/svg">
<path d="M10.9395 1.9866C6.7515 1.9866 3.34796 5.39015 3.34796 9.57815V13.2348C3.34796 14.0066 3.01899 15.1832 2.62676 15.8412L1.17171 18.2578C0.273378 19.7508 0.893354 21.4083 2.53819 21.965C7.99145 23.787 13.8749 23.787 19.3282 21.965C20.8591 21.4589 21.5297 19.6496 20.6946 18.2578L19.2396 15.8412C18.86 15.1832 18.5311 14.0066 18.5311 13.2348V9.57815C18.5311 5.4028 15.1149 1.9866 10.9395 1.9866Z" stroke="#292929" stroke-width="1.5" stroke-miterlimit="10" stroke-linecap="round"/>
<path d="M13.2794 2.35338C12.8872 2.23951 12.4823 2.15094 12.0648 2.10033C10.8501 1.9485 9.68607 2.03707 8.59795 2.35338C8.96487 1.41709 9.87586 0.759155 10.9387 0.759155C12.0015 0.759155 12.9125 1.41709 13.2794 2.35338Z" stroke="#292929" stroke-width="1.5" stroke-miterlimit="10" stroke-linecap="round" stroke-linejoin="round"/>
<path d="M14.7349 22.4207C14.7349 24.5083 13.0268 26.2164 10.9392 26.2164C9.90166 26.2164 8.94006 25.7862 8.25682 25.103C7.57358 24.4198 7.1434 23.4582 7.1434 22.4207" stroke="#292929" stroke-width="1.5" stroke-miterlimit="10"/>
<circle cx="17.9268" cy="6.40234" r="5.57324" fill="#C12222" stroke="#F8F8F8"/>
</svg>
