<svg width="34" height="34" viewBox="0 0 34 34" fill="none" xmlns="http://www.w3.org/2000/svg">
<path d="M14.4511 5.21948C14.3467 4.45997 13.7215 3.89583 12.9841 3.89583H12.2214C11.66 3.89583 11.1469 4.22574 10.8959 4.74804L10.2331 6.12695C9.98211 6.64925 9.46898 6.97916 8.90767 6.97916H6.64348C5.12601 6.97916 3.89584 8.25892 3.89584 9.83757C3.89584 10.9203 4.48385 11.91 5.41469 12.3942L8.36242 13.9275C9.27199 14.4006 9.8849 15.3258 9.98609 16.3785L11.0734 27.6895C11.2051 29.0602 12.3139 30.1042 13.6381 30.1042C14.8668 30.1042 15.9248 29.2019 16.1656 27.9486L16.9949 23.6351C17.1335 22.9146 17.7416 22.3958 18.4481 22.3958H21.946C22.6524 22.3958 23.2605 22.9146 23.3991 23.6351L24.2284 27.9486C24.4694 29.2019 25.5272 30.1042 26.7559 30.1042C28.0802 30.1042 29.1889 29.0602 29.3206 27.6895L30.0817 19.7727C30.3435 17.05 28.2882 14.6874 25.658 14.6874H18.3218C16.8469 14.6874 15.5964 13.5592 15.3877 12.0402L14.4511 5.21948Z" fill="white"/>
</svg>
