<svg width="26" height="25" viewBox="0 0 26 25" fill="none" xmlns="http://www.w3.org/2000/svg">
<path d="M23.7499 7.51252L15.5624 0.962523C13.9624 -0.312477 11.4624 -0.324977 9.87486 0.950023L1.68736 7.51252C0.512356 8.45002 -0.200144 10.325 0.049856 11.8L1.62486 21.225C1.98736 23.3375 3.94986 25 6.08736 25H19.3374C21.4499 25 23.4499 23.3 23.8124 21.2125L25.3874 11.7875C25.6124 10.325 24.8999 8.45002 23.7499 7.51252ZM13.6499 20C13.6499 20.5125 13.2249 20.9375 12.7124 20.9375C12.1999 20.9375 11.7749 20.5125 11.7749 20V16.25C11.7749 15.7375 12.1999 15.3125 12.7124 15.3125C13.2249 15.3125 13.6499 15.7375 13.6499 16.25V20Z" fill="#292929"/>
</svg>
