<svg width="19" height="19" viewBox="0 0 19 19" fill="none" xmlns="http://www.w3.org/2000/svg">
<path d="M0.506166 9.5H7.01401" stroke="#5F5F5F" stroke-linecap="round" stroke-linejoin="round"/>
<path d="M0.506166 16.3246H13.5219" stroke="#5F5F5F" stroke-linecap="round" stroke-linejoin="round"/>
<path d="M11.3526 9.5H17.8604" stroke="#5F5F5F" stroke-linecap="round" stroke-linejoin="round"/>
<path d="M17.8604 2.67547H4.84474" stroke="#5F5F5F" stroke-linecap="round" stroke-linejoin="round"/>
<path d="M0.506166 2.67545C0.506166 4.06379 1.28711 4.84473 2.67545 4.84473C4.06379 4.84473 4.84473 4.06379 4.84473 2.67545C4.84473 1.28711 4.06379 0.506166 2.67545 0.506166C1.28711 0.506166 0.506166 1.28711 0.506166 2.67545Z" stroke="#5F5F5F" stroke-linecap="round" stroke-linejoin="round"/>
<path d="M13.5219 16.3246C13.5219 17.7129 14.3028 18.4938 15.6911 18.4938C17.0795 18.4938 17.8604 17.7129 17.8604 16.3246C17.8604 14.9362 17.0795 14.1553 15.6911 14.1553C14.3028 14.1553 13.5219 14.9362 13.5219 16.3246Z" stroke="#5F5F5F" stroke-linecap="round" stroke-linejoin="round"/>
<path d="M7.04727 9.50004C7.04727 10.8884 7.82821 11.6693 9.21655 11.6693C10.6049 11.6693 11.3858 10.8884 11.3858 9.50004C11.3858 8.11169 10.6049 7.33075 9.21655 7.33075C7.82821 7.33075 7.04727 8.11169 7.04727 9.50004Z" stroke="#5F5F5F" stroke-linecap="round" stroke-linejoin="round"/>
</svg>
