<svg width="26" height="27" viewBox="0 0 26 27" fill="none" xmlns="http://www.w3.org/2000/svg">
<path d="M0.751882 0.751882H2.93235C4.28573 0.751882 5.3509 1.9173 5.23811 3.25816L4.19801 15.7394C4.02257 17.782 5.63911 19.5364 7.69425 19.5364H21.0402C22.8447 19.5364 24.4236 18.0577 24.5615 16.2657L25.2382 6.86719C25.3885 4.78699 23.8096 3.09524 21.7169 3.09524H5.53887" stroke="#292929" stroke-width="1.5" stroke-miterlimit="10" stroke-linecap="round" stroke-linejoin="round"/>
<path d="M18.6091 25.8146C19.4742 25.8146 20.1755 25.1132 20.1755 24.2481C20.1755 23.383 19.4742 22.6817 18.6091 22.6817C17.744 22.6817 17.0427 23.383 17.0427 24.2481C17.0427 25.1132 17.744 25.8146 18.6091 25.8146Z" stroke="#292929" stroke-width="1.5" stroke-miterlimit="10" stroke-linecap="round" stroke-linejoin="round"/>
<path d="M8.58399 25.8146C9.4491 25.8146 10.1504 25.1132 10.1504 24.2481C10.1504 23.383 9.4491 22.6817 8.58399 22.6817C7.71888 22.6817 7.01757 23.383 7.01757 24.2481C7.01757 25.1132 7.71888 25.8146 8.58399 25.8146Z" stroke="#292929" stroke-width="1.5" stroke-miterlimit="10" stroke-linecap="round" stroke-linejoin="round"/>
<path d="M9.52384 8.2707H24.5615" stroke="#292929" stroke-width="1.5" stroke-miterlimit="10" stroke-linecap="round" stroke-linejoin="round"/>
</svg>
