<svg width="34" height="34" viewBox="0 0 34 34" fill="none" xmlns="http://www.w3.org/2000/svg">
<path fill-rule="evenodd" clip-rule="evenodd" d="M24.7016 21.5448C27.4393 21.8066 30.1042 22.0613 30.1042 17C30.1042 9.76277 24.2372 3.89583 17 3.89583C9.76277 3.89583 3.89583 9.76277 3.89583 17C3.89583 24.2372 9.76277 30.1042 17 30.1042C22.7743 30.1042 21.6859 28.1561 20.5319 26.0907C19.8457 24.8625 19.1363 23.5927 19.8333 22.6667C20.9478 21.186 22.8415 21.367 24.7016 21.5448ZM19.125 9.91666C19.125 11.0903 18.1736 12.0417 17 12.0417C15.8264 12.0417 14.875 11.0903 14.875 9.91666C14.875 8.74305 15.8264 7.79166 17 7.79166C18.1736 7.79166 19.125 8.74305 19.125 9.91666ZM12.3958 14.875C12.3958 16.0486 11.4444 17 10.2708 17C9.09722 17 8.14583 16.0486 8.14583 14.875C8.14583 13.7014 9.09722 12.75 10.2708 12.75C11.4444 12.75 12.3958 13.7014 12.3958 14.875ZM23.7292 17C24.9027 17 25.8542 16.0486 25.8542 14.875C25.8542 13.7014 24.9027 12.75 23.7292 12.75C22.5556 12.75 21.6042 13.7014 21.6042 14.875C21.6042 16.0486 22.5556 17 23.7292 17Z" fill="white"/>
</svg>
