<svg width="27" height="27" viewBox="0 0 27 27" fill="none" xmlns="http://www.w3.org/2000/svg">
<path d="M13.6528 14.4933C13.5636 14.4806 13.449 14.4806 13.3471 14.4933C11.1056 14.4169 9.3226 12.5829 9.3226 10.3287C9.3226 8.0235 11.182 6.15133 13.5 6.15133C15.8052 6.15133 17.6773 8.0235 17.6773 10.3287C17.6646 12.5829 15.8943 14.4169 13.6528 14.4933Z" stroke="#292929" stroke-width="1.5" stroke-linecap="round" stroke-linejoin="round"/>
<path d="M22.084 22.8991C19.817 24.975 16.8113 26.2359 13.5 26.2359C10.1887 26.2359 7.18303 24.975 4.91605 22.8991C5.04341 21.7019 5.80756 20.5302 7.1703 19.6132C10.6599 17.2953 16.3656 17.2953 19.8297 19.6132C21.1925 20.5302 21.9566 21.7019 22.084 22.8991Z" stroke="#292929" stroke-width="1.5" stroke-linecap="round" stroke-linejoin="round"/>
<path d="M13.5 26.2358C20.5338 26.2358 26.2358 20.5338 26.2358 13.5C26.2358 6.46618 20.5338 0.764151 13.5 0.764151C6.46618 0.764151 0.764151 6.46618 0.764151 13.5C0.764151 20.5338 6.46618 26.2358 13.5 26.2358Z" stroke="#292929" stroke-width="1.5" stroke-linecap="round" stroke-linejoin="round"/>
</svg>
