<svg width="18" height="21" viewBox="0 0 18 21" fill="none" xmlns="http://www.w3.org/2000/svg">
<path d="M17.7465 6.79438C16.6817 2.1093 12.5949 0 9.00507 0C9.00507 0 9.00507 0 8.99493 0C5.4152 0 1.31829 2.09916 0.2535 6.78424C-0.932982 12.0169 2.27153 16.4485 5.17182 19.2372C6.24675 20.2716 7.62591 20.7888 9.00507 20.7888C10.3842 20.7888 11.7634 20.2716 12.8282 19.2372C15.7285 16.4485 18.933 12.0271 17.7465 6.79438ZM9.00507 11.875C7.24056 11.875 5.8107 10.4451 5.8107 8.68059C5.8107 6.91607 7.24056 5.48621 9.00507 5.48621C10.7696 5.48621 12.1994 6.91607 12.1994 8.68059C12.1994 10.4451 10.7696 11.875 9.00507 11.875Z" fill="#292929"/>
</svg>
